<?xml version="1.0" encoding="utf-8"?>
<!-- Generator: Adobe Illustrator 24.3.0, SVG Export Plug-In . SVG Version: 6.00 Build 0)  -->
<svg version="1.1" id="Layer_1" xmlns="http://www.w3.org/2000/svg" xmlns:xlink="http://www.w3.org/1999/xlink" x="0px" y="0px"
	 viewBox="0 0 305.4 371.9" style="enable-background:new 0 0 305.4 371.9;" xml:space="preserve">
<style type="text/css">
	.st0{fill:#C1004E;}
</style>
<path id="Pfad_619" class="st0" d="M257.8,218C291,61.4,116.1,26.9,61.6,130.5S52,290.4,115,298.6
	C187.8,308.1,233.8,284.3,257.8,218z"/>
<path id="Pfad_619_3_" class="st0" d="M-69.2,232.3c23.9-59.9-121.5-217.9-176-124.3s-22.5,176.6,33.2,197.1
	C-144,330-93.2,292.2-69.2,232.3z"/>
<path id="Pfad_619_2_" class="st0" d="M-366.2,232.3c32.1-59.9-163.1-217.9-236.2-124.3s-33.4,209.1,44.6,197.1
	S-398.3,292.2-366.2,232.3z"/>
<path id="Pfad_619_1_" class="st0" d="M-822.5,322.4c63.7,11,144.2-216.2,37.4-254.4s-197.8,33.5-162.6,101.2
	S-886.2,311.3-822.5,322.4z"/>
</svg>
