<?xml version="1.0" encoding="utf-8"?>
<!-- Generator: Adobe Illustrator 24.2.3, SVG Export Plug-In . SVG Version: 6.00 Build 0)  -->
<svg version="1.1" id="Layer_1" xmlns="http://www.w3.org/2000/svg" xmlns:xlink="http://www.w3.org/1999/xlink" x="0px" y="0px"
	 viewBox="0 0 768.3 636.7" style="enable-background:new 0 0 768.3 636.7;" xml:space="preserve">
<style type="text/css">
	.st0{fill:#FFF7F3;}
</style>
<path id="Pfad_595" class="st0" d="M0.4,154c-6.9,98.8,70.2,233.1,207.1,226l74.4,7.6c143.9,31.7,42.8,212.7,268.4,186.4
	c33.5-4.4,64.9-7.4,91.3,7.7c32,15.9,52,62.4,92.9,54.1c42.7-22.4,41.7-107.4,15.6-139c-35.2-37.4-81.9-52-99.2-107.6
	c-57-161.3-169.1-104.7-199.2-243.7c-7.6-27.2-11.5-57.4-38.2-75.4C369,39.5,270.2-12.9,225.2,2.9c-130.6,30.9-90,7.1-200,86
	C14.6,93.7,1,145.6,0.4,154z"/>
</svg>
