<svg xmlns="http://www.w3.org/2000/svg" xmlns:xlink="http://www.w3.org/1999/xlink" width="24" height="24" viewBox="0 0 24 24">
  <defs>
    <clipPath id="clip-path">
      <rect width="24" height="24" fill="none"/>
    </clipPath>
  </defs>
  <g id="Icon_-_Search" data-name="Icon - Search" clip-path="url(#clip-path)">
    <rect id="Square" width="24" height="24" fill="none"/>
    <path id="Icon_-_Search-2" data-name="Icon - Search" d="M2539.359-1930.445c-1.687-1.871-3.31-3.854-5.1-5.635l.02-.02a9.919,9.919,0,0,0,.962-11.51,10.336,10.336,0,0,0-11.264-4.809c-4.781,1.029-6.776,5.084-6.819,9.661-.015,4.091,2.026,7.948,6.03,9.382a10.837,10.837,0,0,0,9.92-1.639c1.806,1.792,3.442,3.792,5.143,5.678C2538.928-1928.587,2540.033-1929.7,2539.359-1930.445Zm-14.347-4.073c-4.1-.7-6.3-4.306-6.287-8.24.03-3.207,1-6.442,4.234-7.719a8.9,8.9,0,0,1,10.033,2.367,8.6,8.6,0,0,1,.89,9.962A8.927,8.927,0,0,1,2525.012-1934.518Z" transform="translate(-2516.159 1952.669)"/>
  </g>
</svg>
