<svg xmlns="http://www.w3.org/2000/svg" width="25.973" height="25.973" viewBox="0 0 25.973 25.973">
  <path id="settings" d="M25.362,10.029l-2-.434a10.865,10.865,0,0,0-.642-1.549l1.105-1.719a.776.776,0,0,0-.1-.968l-3.11-3.11a.776.776,0,0,0-.968-.1L17.927,3.25a10.864,10.864,0,0,0-1.549-.642l-.434-2A.776.776,0,0,0,15.185,0h-4.4a.776.776,0,0,0-.758.611l-.434,2a10.864,10.864,0,0,0-1.549.642L6.327,2.145a.776.776,0,0,0-.968.1l-3.11,3.11a.776.776,0,0,0-.1.968L3.25,8.046A10.864,10.864,0,0,0,2.607,9.6l-2,.434A.776.776,0,0,0,0,10.787v4.4a.776.776,0,0,0,.611.758l2,.434a10.864,10.864,0,0,0,.642,1.549L2.145,19.646a.776.776,0,0,0,.1.968l3.11,3.11a.776.776,0,0,0,.968.1l1.719-1.105a10.865,10.865,0,0,0,1.549.642l.434,2a.776.776,0,0,0,.758.611h4.4a.776.776,0,0,0,.758-.611l.434-2a10.865,10.865,0,0,0,1.549-.642l1.719,1.105a.776.776,0,0,0,.968-.1l3.11-3.11a.776.776,0,0,0,.1-.968l-1.105-1.719a10.865,10.865,0,0,0,.642-1.549l2-.434a.776.776,0,0,0,.611-.758v-4.4A.776.776,0,0,0,25.362,10.029Zm-7.719,2.957A4.656,4.656,0,1,1,12.986,8.33,4.662,4.662,0,0,1,17.643,12.986Zm0,0"/>
</svg>
